<?xml version="1.0" encoding="utf-8"?>
<!-- Generator: Adobe Illustrator 21.0.0, SVG Export Plug-In . SVG Version: 6.00 Build 0)  -->
<!DOCTYPE svg PUBLIC "-//W3C//DTD SVG 1.1//EN" "http://www.w3.org/Graphics/SVG/1.1/DTD/svg11.dtd">
<svg version="1.1" id="Layer_1" xmlns="http://www.w3.org/2000/svg" xmlns:xlink="http://www.w3.org/1999/xlink" x="0px" y="0px"
	 viewBox="0 0 490 56" style="enable-background:new 0 0 490 56;" xml:space="preserve">
<style type="text/css">
	.st0{fill:#21D38D;}
</style>
<path class="st0" d="M220.2,33.8c-1.5,5.5-5.3,8.2-11.1,8.2c-5.5,0-8.4-1.4-10.6-4.1c-1.8-2.2-2.5-5.1-2.5-8.8c0-8,4.7-14,14.2-14
	c5.1,0,9.7,1.9,9.7,6.4c0,2.8-2.5,3.7-4.3,3.7c-0.6,0-1.3-0.1-1.9-0.5c-0.5-0.4-0.7-1-0.5-1.9c0.1-0.9,0.2-1.5,0.2-2.3
	c0-2.9-1-4.7-3.4-4.7c-3.2,0-5,4.7-5,11.9c0,2.5,0.4,5.5,1.1,7.3c1.3,3.4,3.2,4.6,6.1,4.6c3.7,0,5.9-2.2,7.3-6.4L220.2,33.8z
	 M221.2,1c2.3,0,8.8-0.4,12.2-1c0,1.4-0.4,7.2-0.4,15.2V19c3.1-2.6,5.7-4,9.3-4c3.4,0.1,6,1.5,7.6,4.1c1.2,2,1.9,4.9,1.9,7.9
	c0,10-5,14.9-14.1,14.9c-2.7,0-5.8-0.7-7.4-1.6c-1.9,0.5-3.9,1.2-5.3,1.7l-0.3-0.2c0-3.6,0.1-8.9,0.1-15.6V11.8
	c0-3.9-0.1-6.4-0.2-8.6c-0.1-1.3-0.4-1.4-3.3-1.4V1H221.2z M237.4,41.1c3.8,0,5.6-4.3,5.6-13.2c0-3.2-0.4-6-1.4-7.9
	c-0.7-1.5-1.9-2.5-3.7-2.5c-2.2,0-3.8,1.4-4.6,3.1c-0.4,0.8-0.5,1.7-0.5,9.4c0,7.5,0.2,7.9,0.7,8.8
	C234.6,40.4,235.9,41.1,237.4,41.1L237.4,41.1z M260.3,45.4c-1.3,0.5-2.3,1.3-2.3,3.2c0,3,3.1,5.9,9.2,5.9c7.5,0,10.1-3.5,10.1-6.8
	c0-1.9-1.5-3.1-3.7-3.1h-11.3c-3.4,0-5.5-0.8-7.3-3.1c-0.8-1.1-1.4-2.6-1.4-4.6c0-3.4,2.3-5.6,3.9-7.1c-1.1-1.3-1.7-3.2-1.7-5.2
	c0-7.3,6.3-9.5,11.2-9.5c3.8,0,6.1,1,6.7,1.4c1.4-1.3,3.8-3.2,5.6-3.2c1.5,0,2.6,1.2,2.6,2c-0.2,0.9-1.4,2.5-2,2.8
	c-0.8-0.7-2.4-1.2-3.6-1.2c-0.8,0-1.4,0.1-1.9,0.2c2.3,1.9,3.4,4.1,3.4,6.9c0,7.1-6.2,9.2-11.3,9.2c-4.3,0-7.1-1.3-8.3-2.5
	c-1.4,0.4-2.3,2-2.3,3.3c0,1.6,1.3,2.5,3,2.5c3.9,0,8.3-0.2,15.5-0.2c1.6,0,3.2,0.3,4.9,1.7c1.5,1.3,2.5,3.5,2.5,5.6
	c0,8.6-9.1,12.4-16.6,12.4c-8.2,0-11.4-2.7-11.4-6.5c0-1.4,0.8-2.3,2.5-3.2c1-0.5,2.8-1.1,3.8-1.3L260.3,45.4z M266.6,16
	c-1.7,0-2.9,1.6-2.9,7.8c0,4.8,1.1,8.5,3.2,8.5c2.2,0,2.8-3.2,2.8-8C269.7,20.9,269.2,16,266.6,16L266.6,16z M289.3,32.5
	c2.5,0,4.5,2,4.5,4.7s-2,4.7-4.6,4.7c-2.5,0-4.6-1.9-4.6-4.7C284.7,34.6,286.8,32.5,289.3,32.5L289.3,32.5z"/>
</svg>
