<svg xmlns="http://www.w3.org/2000/svg" width="98" height="56" viewBox="0 0 98 56">
  <path fill="#FFFFFF" fill-rule="evenodd" d="M104.188698,113.792102 C102.68814,119.253998 98.8467311,121.95503 93.0846184,121.95503 C87.5626263,121.95503 84.6817003,120.574532 82.5208754,117.873631 C80.7202315,115.712676 80,112.771785 80,109.050436 C80,101.007569 84.7416653,95.065431 94.1650308,95.065431 C99.266877,95.065431 103.888612,96.9260399 103.888612,101.48768 C103.888612,104.308641 101.367606,105.209028 99.5669626,105.209028 C98.9667914,105.209028 98.2465599,105.088968 97.7063537,104.728917 C97.1661474,104.308641 96.9861222,103.768435 97.1661474,102.868178 C97.2862078,101.967791 97.4062681,101.36762 97.4062681,100.587293 C97.4062681,97.7063667 96.4459159,95.9057228 94.0451008,95.9057228 C90.8038636,95.9057228 89.0032196,100.647388 89.0032196,107.849964 C89.0032196,110.370839 89.3632702,113.31186 90.0836321,115.1726 C91.3440698,118.533767 93.324739,119.73424 96.1458304,119.73424 C99.8070832,119.73424 102.027873,117.51345 103.408371,113.371956 L104.188698,113.792102 Z M105.208963,81.0203171 C107.489718,81.0203171 114.032027,80.6601362 117.453159,80 C117.453159,81.440463 117.093108,87.2025757 117.093108,95.2454432 L117.093108,99.0268867 C120.214285,96.3858206 122.795126,95.0654179 126.396544,95.0654179 C129.817676,95.1253829 132.398647,96.5659763 133.959301,99.1468167 C135.159643,101.187581 135.81991,104.008542 135.81991,107.009659 C135.81991,117.033196 130.838124,121.894921 121.714844,121.894921 C119.013813,121.894921 115.952731,121.234785 114.272147,120.334528 C112.351443,120.874604 110.370644,121.534871 108.930181,122.014981 L108.630095,121.834956 C108.630095,118.233668 108.750155,112.951797 108.750155,106.229332 L108.750155,91.824311 C108.750155,87.9228072 108.630095,85.4019318 108.510035,83.2411069 C108.45007,81.9806692 108.089889,81.8006439 105.208963,81.8006439 L105.208963,81.0203171 Z M121.414628,121.05476 C125.256036,121.05476 126.996585,116.793205 126.996585,107.849951 C126.996585,104.668809 126.576569,101.847848 125.616087,99.9872388 C124.895855,98.4865501 123.695513,97.5263284 121.954964,97.5263284 C119.734044,97.5263284 118.173521,98.9667914 117.333099,100.647375 C116.913083,101.487667 116.852988,102.388054 116.852988,110.070741 C116.852988,117.573402 117.093108,117.993678 117.573219,118.83397 C118.593667,120.394493 119.914069,121.05476 121.354663,121.05476 L121.414628,121.05476 Z M144.282023,125.436257 C142.961621,125.976463 141.941304,126.75679 141.941304,128.617529 C141.941304,131.618516 145.062481,134.559537 151.124679,134.559537 C158.62721,134.559537 161.208181,131.078309 161.208181,127.717012 C161.208181,125.796438 159.707622,124.595965 157.546797,124.595965 L146.202858,124.595965 C142.84156,124.595965 140.740831,123.815769 138.940187,121.474919 C138.099895,120.394376 137.499724,118.893948 137.499724,116.913148 C137.499724,113.491886 139.780479,111.271226 141.401097,109.830633 C140.320685,108.5101 139.720514,106.649491 139.720514,104.608857 C139.720514,97.2862208 146.022702,95.065431 150.944523,95.065431 C154.725967,95.065431 157.066817,96.0857481 157.666858,96.505894 C159.107451,95.2454562 161.448301,93.2646567 163.248815,93.2646567 C164.749504,93.2646567 165.889881,94.4651294 165.889881,95.2454562 C165.709725,96.145713 164.449288,97.7663317 163.849116,98.0064523 C163.06892,97.3461858 161.448301,96.8059796 160.247829,96.8059796 C159.467632,96.8059796 158.867331,96.8659445 158.327124,97.0461002 C160.668105,98.9068394 161.748387,101.187594 161.748387,103.94846 C161.748387,111.031106 155.506163,113.131966 150.404317,113.131966 C146.082798,113.131966 143.261706,111.871397 142.121329,110.671055 C140.740831,111.091071 139.840574,112.651724 139.840574,113.972127 C139.840574,115.532781 141.160977,116.433037 142.84156,116.433037 C146.742934,116.433037 151.184514,116.192917 158.327124,116.192917 C159.947743,116.192917 161.568362,116.493133 163.248815,117.933596 C164.749504,119.253998 165.709725,121.474919 165.709725,123.575648 C165.709725,132.218817 156.586576,136 149.143879,136 C140.920856,136 137.739845,133.299099 137.739845,129.517786 C137.739845,128.137288 138.520041,127.236901 140.200625,126.276679 C141.160977,125.736343 142.961621,125.136171 144.041903,124.956146 L144.282023,125.436257 Z M150.584342,95.9656877 C148.903759,95.9656877 147.643321,97.5263414 147.643321,103.768435 C147.643321,108.570195 148.723733,112.291543 150.884558,112.291543 C153.105348,112.291543 153.705389,109.050436 153.705389,104.308641 C153.705389,100.887509 153.225408,95.9656877 150.644438,95.9656877 L150.584342,95.9656877 Z M173.272221,112.531677 C175.733132,112.531677 177.773896,114.512346 177.773896,117.273342 C177.773896,119.974373 175.733132,121.955043 173.212256,121.955043 C170.69125,121.955043 168.650616,120.034338 168.650616,117.273342 C168.650616,114.572311 170.751346,112.531677 173.212256,112.531677 L173.272221,112.531677 Z" transform="translate(-80 -80)"/>
</svg>
