<svg xmlns="http://www.w3.org/2000/svg" width="55" height="55" viewBox="0 0 55 55" xmlns:xlink="http://www.w3.org/1999/xlink">
  <defs>
    <ellipse id="a" cx="27.5" cy="27.5" rx="27.5" ry="27.5"/>
    <mask id="b" width="55" height="55" x="0" y="0" fill="white">
      <use xlink:href="#a"/>
    </mask>
  </defs>
  <g fill="none" fill-rule="evenodd">
    <path fill="#1769FF" d="M17.031,28.871 L22.447,28.871 C22.447,28.871 24.406,28.842 24.406,31.559 C24.406,33.85 22.943,34.087 22.174,34.104 C22.029,34.107 21.908,34.104 21.826,34.104 L17.031,34.104 L17.031,28.871 Z M17.031,21.482 L21.75,21.482 L22.447,21.482 C22.447,21.482 23.761,21.482 23.761,23.517 C23.761,25.555 22.988,25.85 22.111,25.85 L17.031,25.85 L17.031,21.482 Z M17.031,38 L16.871,38 L13,38 L13,18 L16.871,18 L17.031,18 L22.447,18 C25.388,18 27.711,19.71 27.711,23.216 C27.711,26.719 24.873,26.94 24.873,26.94 C28.615,26.94 28.357,31.805 28.357,31.805 C28.357,37.78 22.447,38 22.447,38 L17.031,38 Z M36.2399,22.983 C43.7689,22.983 42.7149,31.483 42.7149,31.483 L33.0739,31.483 C33.0739,35.122 36.3499,34.892 36.3499,34.892 C39.4409,34.892 39.3319,32.785 39.3319,32.785 L42.6069,32.785 C42.6069,38.377 36.2399,37.994 36.2399,37.994 C28.5999,37.994 29.0919,30.508 29.0919,30.508 C29.0919,30.508 29.0859,22.983 36.2399,22.983 Z M33.0369,28.871 L39.1479,28.871 C39.1479,28.871 39.1869,25.85 36.3119,25.85 C33.4369,25.85 33.0369,28.871 33.0369,28.871 Z M32.2356,21 L32.2356,19.153 L39.9116,19.153 L39.9116,21 L32.2356,21 Z"/>
    <use stroke="#1769FF" stroke-width="4" mask="url(#b)" xlink:href="#a"/>
  </g>
</svg>
