<svg xmlns="http://www.w3.org/2000/svg" width="55" height="55" viewBox="0 0 55 55" xmlns:xlink="http://www.w3.org/1999/xlink">
  <defs>
    <ellipse id="a" cx="27.5" cy="27.5" rx="27.5" ry="27.5"/>
    <mask id="b" width="55" height="55" x="0" y="0" fill="white">
      <use xlink:href="#a"/>
    </mask>
  </defs>
  <g fill="none" fill-rule="evenodd">
    <path fill="#E1306C" d="M37.6624,35.3624 C37.6624,36.6312 36.6296,37.6624 35.3608,37.6624 L20.6376,37.6624 C19.3688,37.6624 18.3376,36.6312 18.3376,35.3624 L18.3376,25.5376 L21.92,25.5376 C21.6112,26.2984 21.4376,27.1296 21.4376,28 C21.4376,31.6184 24.3808,34.5624 28,34.5624 C31.6184,34.5624 34.5624,31.6184 34.5624,28 C34.5624,27.1296 34.3872,26.2984 34.0784,25.5376 L37.6624,25.5376 L37.6624,35.3624 Z M24.5752,25.5376 C25.344,24.4736 26.5904,23.7768 28,23.7768 C29.4096,23.7768 30.656,24.4736 31.4248,25.5376 C31.9248,26.2312 32.2248,27.0808 32.2248,28 C32.2248,30.328 30.328,32.2232 28,32.2232 C25.6704,32.2232 23.7752,30.328 23.7752,28 C23.7752,27.0808 24.0752,26.2312 24.5752,25.5376 L24.5752,25.5376 Z M36.692,18.7672 L37.2216,18.764 L37.2216,19.2936 L37.2216,22.8312 L33.1688,22.8456 L33.1544,18.7784 L36.692,18.7672 Z M35.3608,16 L20.6376,16 C18.0792,16 16,18.0792 16,20.6376 L16,25.5376 L16,35.3624 C16,37.92 18.0792,40 20.6376,40 L35.3608,40 C37.9184,40 40,37.92 40,35.3624 L40,25.5376 L40,20.6376 C40,18.0792 37.9184,16 35.3608,16 L35.3608,16 Z"/>
    <use stroke="#E1306C" stroke-width="4" mask="url(#b)" xlink:href="#a"/>
  </g>
</svg>
