<svg xmlns="http://www.w3.org/2000/svg" width="55" height="55" viewBox="0 0 55 55" xmlns:xlink="http://www.w3.org/1999/xlink">
  <defs>
    <ellipse id="a" cx="27.5" cy="27.5" rx="27.5" ry="27.5"/>
    <mask id="b" width="55" height="55" x="0" y="0" fill="white">
      <use xlink:href="#a"/>
    </mask>
  </defs>
  <g fill="none" fill-rule="evenodd">
    <path fill="#0077B5" d="M16,38 L16,22 L21.6,22 L21.6,38 L16,38 Z M18.8,19.6 C17.252,19.6 16,18.3456 16,16.8 C16,15.2536 17.252,14 18.8,14 C20.3448,14 21.6,15.2536 21.6,16.8 C21.6,18.3456 20.3448,19.6 18.8,19.6 Z M40,29.20696 L40,37.99976 L35.2,37.99976 L35.2,30.20376 C35.2,28.34456 34.9936,25.95336 32.4456,25.95336 C29.8576,25.95336 29.4624,27.97816 29.4624,30.06936 L29.4624,37.99976 L24.8,37.99976 L24.8,21.99976 L29.2608,21.99976 L29.2608,24.15896 L29.3296,24.15896 C29.9936,22.89816 31.6168,21.99976 34.036,21.99976 C39.0688,21.99976 40,24.89016 40,29.20696 Z"/>
    <use stroke="#0077B5" stroke-width="4" mask="url(#b)" xlink:href="#a"/>
  </g>
</svg>
