<svg xmlns="http://www.w3.org/2000/svg" width="55" height="55" viewBox="0 0 55 55" xmlns:xlink="http://www.w3.org/1999/xlink">
  <defs>
    <ellipse id="a" cx="27.5" cy="27.5" rx="27.5" ry="27.5"/>
    <mask id="b" width="55" height="55" x="0" y="0" fill="white">
      <use xlink:href="#a"/>
    </mask>
  </defs>
  <g fill="none" fill-rule="evenodd">
    <path fill="#1DA1F2" d="M40.74375,17.4051667 C39.6538333,18.04225 38.44475,18.50425 37.1595833,18.7545 C36.132,17.6746667 34.6653333,17 33.0419167,17 C29.9261667,17 27.3998333,19.4869167 27.3998333,22.5540833 C27.3998333,22.9895 27.45025,23.4120833 27.5455833,23.8190833 C22.8559167,23.5871667 18.6988333,21.3761667 15.9158333,18.0165833 C15.4309167,18.8360833 15.1513333,19.79125 15.1513333,20.8096667 C15.1513333,22.7346667 16.1495833,24.4350833 17.6620833,25.4315 C16.739,25.4021667 15.86725,25.1528333 15.1064167,24.7366667 L15.1064167,24.8063333 C15.1064167,27.49675 17.0515833,29.7416667 19.6338333,30.2531667 C19.159,30.3796667 18.66125,30.4484167 18.1460833,30.4484167 C17.7821667,30.4484167 17.42925,30.41175 17.0836667,30.3475833 C17.8041667,32.5530833 19.8859167,34.16 22.3545,34.2049167 C20.4230833,35.6945 17.9920833,36.58275 15.3465833,36.58275 C14.8900833,36.58275 14.44275,36.5561667 14,36.5048333 C16.4988333,38.0805833 19.4651667,39 22.6505833,39 C33.0290833,39 38.7023333,30.5373333 38.7023333,23.1975833 C38.7023333,22.9574167 38.6995833,22.71725 38.6885833,22.4789167 C39.7895,21.697 40.7474167,20.718 41.50275,19.6033333 C40.4916667,20.0460833 39.4045,20.344 38.2623333,20.4778333 C39.4274167,19.7921667 40.3211667,18.7031667 40.74375,17.4051667"/>
    <use stroke="#1DA1F2" stroke-width="4" mask="url(#b)" xlink:href="#a"/>
  </g>
</svg>
