<svg xmlns="http://www.w3.org/2000/svg" width="55" height="55" viewBox="0 0 55 55" xmlns:xlink="http://www.w3.org/1999/xlink">
  <defs>
    <ellipse id="a" cx="27.5" cy="27.5" rx="27.5" ry="27.5"/>
    <mask id="b" width="55" height="55" x="0" y="0" fill="white">
      <use xlink:href="#a"/>
    </mask>
  </defs>
  <g fill="none" fill-rule="evenodd">
    <path fill="#CD201F" d="M24.8218182,31.6890909 L24.82,23.6990909 L32.1890909,27.7090909 L24.8218182,31.6890909 Z M40.9990909,22.3136364 C40.9990909,22.3136364 40.7327273,20.3536364 39.9163636,19.4909091 C38.8790909,18.36 37.7163636,18.3518182 37.1854545,18.2872727 C33.3654545,18 27.6436364,18 27.6436364,18 L27.6309091,18 C27.6309091,18 21.9045455,18 18.0890909,18.2872727 C17.5563636,18.3518182 16.3945455,18.36 15.3563636,19.4909091 C14.5390909,20.3536364 14.2727273,22.3136364 14.2727273,22.3136364 C14.2727273,22.3136364 14,24.6154545 14,26.9163636 L14,29.0736364 C14,31.3763636 14.2727273,33.6781818 14.2727273,33.6781818 C14.2727273,33.6781818 14.5390909,35.6363636 15.3563636,36.4990909 C16.3945455,37.6318182 17.7581818,37.5945455 18.3636364,37.7136364 C20.5463636,37.9318182 27.6363636,38 27.6363636,38 C27.6363636,38 33.3654545,37.99 37.1854545,37.7036364 C37.7163636,37.6372727 38.8790909,37.6318182 39.9163636,36.4990909 C40.7327273,35.6363636 40.9990909,33.6781818 40.9990909,33.6781818 C40.9990909,33.6781818 41.2727273,31.3763636 41.2727273,29.0736364 L41.2727273,26.9163636 C41.2727273,24.6154545 40.9990909,22.3136364 40.9990909,22.3136364 L40.9990909,22.3136364 Z"/>
    <use stroke="#CD201F" stroke-width="4" mask="url(#b)" xlink:href="#a"/>
  </g>
</svg>
